# Blender 4.2.0
# www.blender.org
mtllib dice.mtl
o Cube
v -0.854658 -1.000000 0.854658
v -0.854658 -0.854658 1.000000
v -1.000000 -0.854658 0.854658
v -0.854658 -0.957430 0.957430
v -0.938571 -0.938571 0.938571
v -0.957430 -0.854658 0.957430
v -0.957430 -0.957430 0.854658
v -0.854658 0.854658 1.000000
v -0.854658 1.000000 0.854658
v -1.000000 0.854658 0.854658
v -0.854658 0.957430 0.957430
v -0.938571 0.938571 0.938571
v -0.957430 0.957430 0.854658
v -0.957430 0.854658 0.957430
v -0.854658 -1.000000 -0.854658
v -1.000000 -0.854658 -0.854658
v -0.854658 -0.854658 -1.000000
v -0.957430 -0.957430 -0.854658
v -0.938571 -0.938571 -0.938571
v -0.957430 -0.854658 -0.957430
v -0.854658 -0.957430 -0.957430
v -0.854658 1.000000 -0.854658
v -0.854658 0.854658 -1.000000
v -1.000000 0.854658 -0.854658
v -0.854658 0.957430 -0.957430
v -0.938571 0.938571 -0.938571
v -0.957430 0.854658 -0.957430
v -0.957430 0.957430 -0.854658
v 0.854658 -1.000000 0.854658
v 1.000000 -0.854658 0.854658
v 0.854658 -0.854658 1.000000
v 0.957430 -0.957430 0.854658
v 0.938571 -0.938571 0.938571
v 0.957430 -0.854658 0.957430
v 0.854658 -0.957430 0.957430
v 0.854658 1.000000 0.854658
v 0.854658 0.854658 1.000000
v 1.000000 0.854658 0.854658
v 0.854658 0.957430 0.957430
v 0.938571 0.938571 0.938571
v 0.957430 0.854658 0.957430
v 0.957430 0.957430 0.854658
v 0.854658 -1.000000 -0.854658
v 0.854658 -0.854658 -1.000000
v 1.000000 -0.854658 -0.854658
v 0.854658 -0.957430 -0.957430
v 0.938571 -0.938571 -0.938571
v 0.957430 -0.854658 -0.957430
v 0.957430 -0.957430 -0.854658
v 0.854658 1.000000 -0.854658
v 1.000000 0.854658 -0.854658
v 0.854658 0.854658 -1.000000
v 0.957430 0.957430 -0.854658
v 0.938571 0.938571 -0.938571
v 0.957430 0.854658 -0.957430
v 0.854658 0.957430 -0.957430
vn -0.1794 -0.9673 0.1794
vn -0.1794 -0.1794 0.9673
vn -0.9673 -0.1794 0.1794
vn -0.1726 -0.6965 0.6965
vn -0.5774 -0.5774 0.5774
vn -0.6965 -0.1726 0.6965
vn -0.6965 -0.6965 0.1726
vn -0.1794 0.1794 0.9673
vn -0.1794 0.9673 0.1794
vn -0.9673 0.1794 0.1794
vn -0.1726 0.6965 0.6965
vn -0.5774 0.5774 0.5774
vn -0.6965 0.6965 0.1726
vn -0.6965 0.1726 0.6965
vn -0.1794 -0.9673 -0.1794
vn -0.9673 -0.1794 -0.1794
vn -0.1794 -0.1794 -0.9673
vn -0.6965 -0.6965 -0.1726
vn -0.5774 -0.5774 -0.5774
vn -0.6965 -0.1726 -0.6965
vn -0.1726 -0.6965 -0.6965
vn -0.1794 0.9673 -0.1794
vn -0.1794 0.1794 -0.9673
vn -0.9673 0.1794 -0.1794
vn -0.1726 0.6965 -0.6965
vn -0.5774 0.5774 -0.5774
vn -0.6965 0.1726 -0.6965
vn -0.6965 0.6965 -0.1726
vn 0.1794 -0.9673 0.1794
vn 0.9673 -0.1794 0.1794
vn 0.1794 -0.1794 0.9673
vn 0.6965 -0.6965 0.1726
vn 0.5774 -0.5774 0.5774
vn 0.6965 -0.1726 0.6965
vn 0.1726 -0.6965 0.6965
vn 0.1794 0.9673 0.1794
vn 0.1794 0.1794 0.9673
vn 0.9673 0.1794 0.1794
vn 0.1726 0.6965 0.6965
vn 0.5774 0.5774 0.5774
vn 0.6965 0.1726 0.6965
vn 0.6965 0.6965 0.1726
vn 0.1794 -0.9673 -0.1794
vn 0.1794 -0.1794 -0.9673
vn 0.9673 -0.1794 -0.1794
vn 0.1726 -0.6965 -0.6965
vn 0.5774 -0.5774 -0.5774
vn 0.6965 -0.1726 -0.6965
vn 0.6965 -0.6965 -0.1726
vn 0.1794 0.9673 -0.1794
vn 0.9673 0.1794 -0.1794
vn 0.1794 0.1794 -0.9673
vn 0.6965 0.6965 -0.1726
vn 0.5774 0.5774 -0.5774
vn 0.6965 0.1726 -0.6965
vn 0.1726 0.6965 -0.6965
vt 0.268208 0.768121
vt 0.481835 0.768121
vt 0.481835 0.981749
vt 0.268208 0.981749
vt 0.268208 0.518165
vt 0.481835 0.518165
vt 0.481835 0.731792
vt 0.268208 0.731792
vt 0.518165 0.518165
vt 0.731792 0.518165
vt 0.731792 0.731792
vt 0.518165 0.731792
vt 0.268208 0.018251
vt 0.481835 0.018251
vt 0.481835 0.231879
vt 0.268208 0.231879
vt 0.268208 0.268208
vt 0.481835 0.268208
vt 0.481835 0.481835
vt 0.268208 0.481835
vt 0.018251 0.731792
vt 0.018251 0.749957
vt 0.007764 0.749957
vt 0.000087 0.731792
vt 0.268208 0.999913
vt 0.257721 0.999913
vt 0.250043 0.981749
vt 0.250043 0.018251
vt 0.250043 0.007764
vt 0.268208 0.000087
vt 0.500000 0.981749
vt 0.500000 0.992236
vt 0.481835 0.999913
vt 0.749957 0.731792
vt 0.749957 0.742279
vt 0.731792 0.749957
vt 0.481835 0.000087
vt 0.492323 0.000087
vt 0.500000 0.018251
vt 0.018251 0.518165
vt 0.000087 0.518165
vt 0.000087 0.507677
vt 0.018251 0.500000
vt 0.268208 0.250043
vt 0.257721 0.250043
vt 0.250043 0.231879
vt 0.250043 0.268208
vt 0.250043 0.257721
vt 0.731792 0.500000
vt 0.742279 0.500000
vt 0.749957 0.518165
vt 0.481835 0.250043
vt 0.492323 0.250043
vt 0.500000 0.268208
vt 0.500000 0.231879
vt 0.500000 0.242366
vt 0.231879 0.731792
vt 0.250043 0.731792
vt 0.252602 0.749957
vt 0.231879 0.749957
vt 0.268208 0.749957
vt 0.250043 0.768121
vt 0.518165 0.749957
vt 0.500000 0.747398
vt 0.500000 0.731792
vt 0.481835 0.749957
vt 0.500000 0.768121
vt 0.231879 0.518165
vt 0.231879 0.500000
vt 0.250043 0.502559
vt 0.250043 0.518165
vt 0.268208 0.500000
vt 0.250043 0.481835
vt 0.500000 0.518165
vt 0.497441 0.500000
vt 0.518165 0.500000
vt 0.481835 0.500000
vt 0.500000 0.481835
s 1
usemtl Material.001
f 31/1/31 37/2/37 8/3/8 2/4/2
f 45/5/45 51/6/51 38/7/38 30/8/30
f 50/9/50 22/10/22 9/11/9 36/12/36
f 3/13/3 10/14/10 24/15/24 16/16/16
f 17/17/17 23/18/23 52/19/52 44/20/44
f 1/21/1 4/22/4 5/23/5 7/24/7
f 2/4/2 6/25/6 5/26/5 4/27/4
f 3/13/3 7/28/7 5/29/5 6/30/6
f 8/3/8 11/31/11 12/32/12 14/33/14
f 9/11/9 13/34/13 12/35/12 11/36/11
f 10/14/10 14/37/14 12/38/12 13/39/13
f 15/40/15 18/41/18 19/42/19 21/43/21
f 16/16/16 20/44/20 19/45/19 18/46/18
f 17/17/17 21/47/21 19/48/19 20/44/20
f 22/10/22 25/49/25 26/50/26 28/51/28
f 23/18/23 27/52/27 26/53/26 25/54/25
f 24/15/24 28/55/28 26/56/26 27/52/27
f 29/57/29 32/58/32 33/59/33 35/60/35
f 30/8/30 34/61/34 33/59/33 32/58/32
f 31/1/31 35/62/35 33/59/33 34/61/34
f 36/12/36 39/63/39 40/64/40 42/65/42
f 37/2/37 41/66/41 40/64/40 39/67/39
f 38/7/38 42/65/42 40/64/40 41/66/41
f 43/68/43 46/69/46 47/70/47 49/71/49
f 44/20/44 48/72/48 47/70/47 46/73/46
f 45/5/45 49/71/49 47/70/47 48/72/48
f 50/9/50 53/74/53 54/75/54 56/76/56
f 51/6/51 55/77/55 54/75/54 53/74/53
f 52/19/52 56/78/56 54/75/54 55/77/55
f 15/40/15 1/21/1 7/24/7 18/41/18
f 18/46/18 7/28/7 3/13/3 16/16/16
f 2/4/2 8/3/8 14/33/14 6/25/6
f 6/30/6 14/37/14 10/14/10 3/13/3
f 9/11/9 22/10/22 28/51/28 13/34/13
f 13/39/13 28/55/28 24/15/24 10/14/10
f 23/18/23 17/17/17 20/44/20 27/52/27
f 27/52/27 20/44/20 16/16/16 24/15/24
f 43/68/43 15/40/15 21/43/21 46/69/46
f 46/73/46 21/47/21 17/17/17 44/20/44
f 22/10/22 50/9/50 56/76/56 25/49/25
f 25/54/25 56/78/56 52/19/52 23/18/23
f 51/6/51 45/5/45 48/72/48 55/77/55
f 55/77/55 48/72/48 44/20/44 52/19/52
f 29/57/29 43/68/43 49/71/49 32/58/32
f 32/58/32 49/71/49 45/5/45 30/8/30
f 50/9/50 36/12/36 42/65/42 53/74/53
f 53/74/53 42/65/42 38/7/38 51/6/51
f 37/2/37 31/1/31 34/61/34 41/66/41
f 41/66/41 34/61/34 30/8/30 38/7/38
f 1/21/1 29/57/29 35/60/35 4/22/4
f 4/27/4 35/62/35 31/1/31 2/4/2
f 36/12/36 9/11/9 11/36/11 39/63/39
f 39/67/39 11/31/11 8/3/8 37/2/37
f 15/40/15 43/68/43 29/57/29 1/21/1
